<?xml version="1.0"?>
<svg version="1.1" xmlns="http://www.w3.org/2000/svg" width="207" height="44" viewBox="0 0 207 44" style="margin-left:-0.75rem;margin-top:-0.5rem"><path fill="#00c9a7" d="M19.875,39.94l0-21.06l-3.315-0.78l0-2.145l7.41-0.195l4.29,0c5.499,0,8.775,2.652,8.775,7.02c0,3.783-1.716,6.357-5.07,7.605c0.624,0.546,1.326,1.56,2.34,3.51l3.081,6.201l2.769,0.624l0,2.34l-5.85,0l-3.315-7.215c-1.833-3.9-2.691-4.68-5.265-4.68l-1.755,0l0,8.775l3.315,0.78l0,2.34l-10.725,0l0-2.34z M23.97,28.24l2.925,0c3.822,0,6.045-1.794,6.045-4.875c0-2.613-2.028-4.485-4.875-4.485l-4.095,0l0,9.36z M62.1354,33.31l-13.455,0c0,4.29,2.301,7.02,5.655,7.02c3.9,0,6.552-2.145,6.552-2.145l1.365,2.028s-3.627,3.237-8.307,3.237c-6.24,0-9.36-4.095-9.36-10.53c0-6.24,3.9-10.92,9.555-10.92s8.19,3.315,8.19,9.165c0,0.975-0.195,2.067-0.195,2.145z M48.8364,30.385l9.36,0c0-2.925-1.131-5.343-4.251-5.343s-4.875,2.418-5.109,5.343z M80.9958,22.585l0,2.925l-5.655,0l0,12.519c0,1.794,0.858,2.379,1.95,2.379c0.936,0,2.028-0.429,3.042-0.975l1.053,2.067c-1.755,1.287-3.51,1.95-5.46,1.95c-2.34,0-4.485-1.287-4.485-5.655l0-12.285l-3.9,0l0-2.535l3.9-0.39l0-4.914l3.9-0.78l0,5.694l5.655,0z M92.8362,22.39l0.351,2.847c0.975-1.092,3.237-3.237,5.889-3.237c1.95,0,3.51,0.585,3.51,0.585l-0.195,5.655l-2.535,0l-0.585-2.925c-2.925,0-4.797,1.911-5.655,3.042l0,11.583l3.9,0.975l0,2.145l-11.115,0l0-2.145l3.315-0.975l0-14.43l-3.315-0.78l0-2.145z M117.1566,22c5.85,0,9.165,4.095,9.165,10.335c0,6.63-3.9,11.115-9.75,11.115s-9.36-3.51-9.36-10.53c0-6.63,4.095-10.92,9.945-10.92z M116.9616,25.12c-3.9,0-5.655,2.535-5.655,7.605c0,4.68,1.56,7.605,5.46,7.605s5.46-2.73,5.46-7.8c0-4.29-1.365-7.41-5.265-7.41z"/><path fill="#845ec2" d="M136.71862109375,37.8818359375q0-0.66650390625,0.45703125-0.847412109375t0.990234375-0.180908203125q0.93310546875,0,1.58056640625,0.837890625t1.228271484375,1.837646484375t1.152099609375,1.837646484375t1.35205078125,0.837890625q0.59033203125,0,1.075927734375-0.295166015625t0.837890625-0.74267578125t0.542724609375-1.00927734375t0.1904296875-1.114013671875q0-1.447265625-0.580810546875-2.98974609375t-1.4853515625-3.18017578125t-1.913818359375-3.3515625t-1.904296875-3.48486328125t-1.4853515625-3.608642578125t-0.59033203125-3.703857421875q0-2.79931640625,1.67578125-4.341796875t4.41796875-1.54248046875q0.93310546875,0,1.88525390625,0.2666015625t1.751953125,0.7998046875t1.304443359375,1.31396484375t0.504638671875,1.828125q0,0.3427734375-0.504638671875,0.447509765625t-0.733154296875,0.104736328125q-0.3427734375,0-0.74267578125-0.085693359375t-0.51416015625-0.466552734375t-0.32373046875-0.8759765625t-0.523681640625-0.923583984375t-0.74267578125-0.74267578125t-0.942626953125-0.314208984375q-0.85693359375,0-1.456787109375,0.352294921875t-0.97119140625,0.942626953125t-0.55224609375,1.323486328125t-0.180908203125,1.513916015625q0,1.828125,0.62841796875,3.684814453125t1.5615234375,3.6943359375t2.028076171875,3.627685546875t2.028076171875,3.48486328125t1.5615234375,3.3134765625t0.62841796875,3.06591796875q0,1.294921875-0.609375,2.18994140625t-1.54248046875,1.456787109375t-2.066162109375,0.81884765625t-2.218505859375,0.257080078125q-1.16162109375,0-2.38037109375-0.466552734375t-2.18994140625-1.285400390625t-1.599609375-1.913818359375t-0.62841796875-2.370849609375z M153.07024707031,22.3046875q0-0.2666015625,0.5712890625-0.45703125t1.294921875-0.314208984375t1.399658203125-0.180908203125t0.923583984375-0.09521484375q0-0.51416015625,0.0380859375-1.037841796875t0.20947265625-0.93310546875t0.542724609375-0.656982421875t1.037841796875-0.24755859375q0.55224609375,0,0.837890625,0.13330078125t0.609375,0.55224609375q0.076171875,0.228515625,0.076171875,0.43798828125l0,0.637939453125t-0.0380859375,0.656982421875q0.70458984375-0.076171875,1.399658203125-0.180908203125t1.399658203125-0.104736328125q0.51416015625,0,0.70458984375,0.01904296875t0.380859375,0.45703125q0.15234375,0.43798828125-0.371337890625,0.66650390625t-1.2568359375,0.3427734375t-1.456787109375,0.17138671875t-0.8759765625,0.05712890625q-0.228515625,3.275390625-0.466552734375,6.49365234375t-0.238037109375,6.53173828125q0,1.4853515625,0.09521484375,3.06591796875t0.533203125,2.98974609375q0.1142578125,0.43798828125,0.380859375,0.81884765625t0.2666015625,0.81884765625q0,0.2666015625-0.20947265625,0.4189453125t-0.504638671875,0.257080078125t-0.59033203125,0.123779296875t-0.485595703125,0.01904296875q-1.19970703125,0-1.828125-0.89501953125t-0.904541015625-2.142333984375t-0.295166015625-2.561279296875t-0.01904296875-2.1328125q0-1.67578125,0.066650390625-3.427734375t0.161865234375-3.4658203125t0.2666015625-3.3515625t0.39990234375-3.046875q-0.66650390625,0.076171875-1.304443359375,0.17138671875t-1.304443359375,0.09521484375q-0.15234375,0-0.409423828125-0.01904296875t-0.485595703125-0.09521484375t-0.390380859375-0.20947265625t-0.161865234375-0.380859375z M167.25097460938,34.7587890625q0-1.08544921875,0.276123046875-2.237548828125t0.8759765625-2.07568359375t1.513916015625-1.50439453125t2.208984375-0.580810546875q0.97119140625,0,2.047119140625,0.333251953125t1.970947265625,0.9521484375t1.456787109375,1.513916015625t0.561767578125,1.99951171875q0,1.3330078125-0.485595703125,2.53271484375t-1.361572265625,2.142333984375t-2.047119140625,1.4853515625t-2.542236328125,0.542724609375q-1.12353515625,0-1.96142578125-0.409423828125t-1.399658203125-1.094970703125t-0.837890625-1.61865234375t-0.276123046875-1.98046875z M170.05029101563,34.720703125q0,0.3427734375,0.104736328125,1.00927734375t0.314208984375,1.304443359375t0.542724609375,1.1044921875t0.809326171875,0.428466796875q1.00927734375-0.1142578125,1.666259765625-0.656982421875t1.06640625-1.323486328125t0.5712890625-1.69482421875t0.161865234375-1.73291015625q0-1.04736328125-0.409423828125-1.751953125t-1.342529296875-1.142578125q0,0.0380859375,0.0380859375,0.0380859375t0.0380859375-0.0380859375l-0.47607421875-0.1142578125q-0.1904296875-0.076171875-0.466552734375-0.17138671875t-0.542724609375-0.4189453125q-0.74267578125,0.2666015625-1.152099609375,0.685546875t-0.618896484375,1.018798828125t-0.257080078125,1.437744140625t-0.047607421875,2.0185546875z M181.67926074219,29.06494140625q0-0.78076171875,0.276123046875-1.31396484375t1.171142578125-0.533203125q0.3427734375,0,0.85693359375,0.104736328125t0.59033203125,0.523681640625q0.1904296875,1.12353515625,0.20947265625,2.4375t0.13330078125,2.4755859375q0.43798828125-0.85693359375,1.12353515625-1.84716796875t1.5615234375-1.828125t1.904296875-1.39013671875t2.0947265625-0.55224609375q0.076171875,0,0.28564453125,0.05712890625t0.390380859375,0.161865234375t0.218994140625,0.238037109375t-0.20947265625,0.24755859375q-0.076171875,0.228515625-0.32373046875,0.276123046875t-0.43798828125,0.047607421875q-0.1142578125,0-0.36181640625-0.09521484375q-1.4091796875,0.74267578125-2.3994140625,2.0185546875t-1.61865234375,2.827880859375t-0.9140625,3.275390625t-0.28564453125,3.361083984375q0,0.81884765625-0.371337890625,0.990234375t-1.190185546875,0.17138671875q-0.43798828125,0-0.923583984375-0.09521484375t-0.676025390625-0.609375q-0.3427734375-1.08544921875-0.561767578125-2.49462890625t-0.333251953125-2.904052734375t-0.161865234375-2.942138671875t-0.047607421875-2.60888671875z M195.21252734375,35.177734375q0-1.3330078125,0.295166015625-3.14208984375t0.999755859375-3.427734375t1.856689453125-2.751708984375t2.904052734375-1.133056640625q1.6376953125,0,2.45654296875,0.942626953125t0.81884765625,2.542236328125q0,1.04736328125-0.390380859375,2.294677734375t-1.114013671875,2.361328125t-1.7138671875,1.856689453125t-2.208984375,0.74267578125l-0.4951171875-0.0380859375q0,0.51416015625,0.15234375,1.380615234375t0.447509765625,1.723388671875t0.76171875,1.50439453125t1.133056640625,0.6474609375q0.97119140625,0,1.8662109375-0.78076171875t1.69482421875-1.73291015625t1.4853515625-1.73291015625t1.2568359375-0.78076171875q0.3046875,0,0.62841796875,0.09521484375t0.36181640625,0.533203125q0,0.2666015625-0.142822265625,0.43798828125t-0.257080078125,0.380859375q-0.59033203125,1.00927734375-1.285400390625,1.92333984375t-1.571044921875,1.65673828125t-1.913818359375,1.171142578125t-2.294677734375,0.428466796875q-1.6376953125,0-2.72314453125-0.580810546875t-1.751953125-1.5615234375t-0.961669921875-2.26611328125t-0.295166015625-2.694580078125z M198.62121875,33.73046875l0.533203125,0.47607421875q0.380859375,0.3427734375,0.76171875,0.15234375t0.685546875-0.695068359375t0.561767578125-1.247314453125t0.45703125-1.5234375t0.295166015625-1.5234375t0.09521484375-1.23779296875l0-0.6474609375t-0.05712890625-0.685546875t-0.199951171875-0.542724609375t-0.447509765625-0.276123046875q-0.09521484375-0.01904296875-0.17138671875-0.01904296875q-0.6474609375,0-1.1044921875,0.81884765625q-0.4951171875,0.9140625-0.7998046875,2.218505859375t-0.43798828125,2.675537109375t-0.17138671875,2.056640625z"/></svg>

